<?xml version="1.0" encoding="UTF-8"?>
<svg xmlns="http://www.w3.org/2000/svg" viewBox="0 0 200.18 229.27">
  <defs>
    <style>
      .cls-1 {
        stroke: #56142c;
        stroke-miterlimit: 10;
        stroke-width: 3px;
      }

      .cls-1, .cls-2 {
        fill: none;
        stroke-linecap: round;
      }

      .cls-3 {
        fill: #4f3426;
        mix-blend-mode: multiply;
      }

      .cls-3, .cls-4, .cls-5, .cls-6 {
        stroke-width: 0px;
      }

      .cls-2 {
        stroke: #26b21f;
        stroke-linejoin: round;
        stroke-width: 2px;
      }

      .cls-7 {
        isolation: isolate;
      }

      .cls-4 {
        fill: #26b21f;
      }

      .cls-5 {
        fill: #ff7f66;
      }

      .cls-6 {
        fill: #f1f1f2;
      }
    </style>
  </defs>
  <g class="cls-7">
    <g id="Layer_2" data-name="Layer 2">
      <g id="object">
        <g>
          <path class="cls-6" d="M184.81,124.73c-3.52-35.41-15.79-66.34-35.95-85.19,1.72-1.63,3.31-3.4,5.15-4.89.64-.51.53-1.59,0-2.12-.62-.62-1.49-.51-2.12,0-.99.8-1.9,1.67-2.8,2.57,0-.01.01-.03.02-.04,1-2.09,2.08-4.15,3.12-6.22.87-1.72-1.72-3.24-2.59-1.51-.99,1.97-1.99,3.94-2.96,5.93-3.4-11.37-9.13-26.15-16.91-31-7.37-4.58-12.89,6.71-15.78,19.24-4.52-.87-9.23-1.32-14.14-1.31-6.05-.01-11.8.67-17.24,1.98-2.76-13.25-8.48-25.93-16.21-21.11-9.66,6.02-16.14,27.39-18.94,38.48-1.13-1.05-2.26-2.1-3.27-3.27-1.27-1.46-3.38.67-2.12,2.12,1.25,1.44,2.67,2.71,4.06,4.01-1.29-.44-2.5-1.17-3.68-1.83-1.69-.95-3.2,1.64-1.51,2.59,1.43.81,2.85,1.58,4.37,2.09-16.87,19.08-27.23,47.46-30.41,79.5-2.8,29.13.03,55.38,14.49,74.22,13.95,18.86,39.53,30.31,70.47,30.33,30.94-.02,56.52-11.47,70.47-30.33,14.46-18.84,17.29-45.09,14.49-74.22Z"/>
          <path class="cls-1" d="M1.59,169.58s15.08-4.34,22.11-5.41"/>
          <path class="cls-1" d="M1.5,148.5s15.48,2.55,22.3,4.59"/>
          <path class="cls-5" d="M77.73,83.41c3.01-1.16,6.71-1.16,9.96-1.39,1.62,0,5.09-.7,6.02.93.93,1.39-.75,5.16-1.44,6.55-2.78,4.4-7.59,6.65-11.76,2.25-3.24-3.24-6.34-7.36-2.78-8.33"/>
          <path class="cls-5" d="M105.02,210.44c-.18,0-.36-.03-.54-.1-17.01-6.51-31.79-.83-31.94-.78-.77.31-1.64-.07-1.95-.85-.3-.77.07-1.64.85-1.95.64-.25,16.03-6.15,34.11.77.77.3,1.16,1.16.86,1.94-.23.6-.8.96-1.4.96Z"/>
          <path class="cls-5" d="M88.51,207.22c-.8,0-1.46-.63-1.5-1.43-.2-4.13-4.78-101.3-3.08-112.44.13-.82.89-1.38,1.71-1.26.82.12,1.38.89,1.26,1.71-1.66,10.84,3.06,110.83,3.11,111.84.04.83-.6,1.53-1.43,1.57-.02,0-.05,0-.07,0Z"/>
          <line class="cls-1" x1="23.71" y1="158.82" x2="7.49" y2="158.82"/>
          <path class="cls-1" d="M198.59,148.5s-15.08,4.34-22.11,5.41"/>
          <path class="cls-1" d="M198.68,169.58s-15.48-2.55-22.3-4.59"/>
          <line class="cls-1" x1="176.48" y1="159.27" x2="192.7" y2="159.27"/>
          <path class="cls-3" d="M84.47,21.74c-.62.13-1.24.27-1.86.42-2.76-13.25-8.48-25.93-16.21-21.11-9.66,6.02-16.14,27.39-18.94,38.48-1.13-1.05-2.26-2.1-3.27-3.27-1.27-1.46-3.38.67-2.12,2.12,1.25,1.44,2.67,2.71,4.06,4.01-1.29-.44-2.5-1.17-3.68-1.83-1.69-.95-3.2,1.64-1.51,2.59,1.43.81,2.85,1.58,4.37,2.09-11.89,13.45-20.53,31.53-25.72,52.24.64.16,66.87,16.78,64.87-75.73Z"/>
          <path class="cls-3" d="M180.72,99.93c-5.84-24.86-16.58-46.1-31.86-60.39,1.72-1.63,3.31-3.4,5.15-4.89.64-.51.53-1.59,0-2.12-.62-.62-1.49-.51-2.12,0-.99.8-1.9,1.67-2.8,2.57,0-.01.01-.03.02-.04,1-2.09,2.08-4.15,3.12-6.22.87-1.72-1.72-3.24-2.59-1.51-.99,1.97-1.99,3.94-2.96,5.93-3.4-11.37-9.13-26.15-16.91-31-7.37-4.58-12.89,6.71-15.78,19.24-4.52-.87-9.23-1.32-14.14-1.31-2.57,0-5.08.12-7.54.36-4.81,25.52-8.58,92.5,88.41,79.39Z"/>
          <path class="cls-4" d="M70.23,62.64c-.1,2.1-1.9,3.72-4.01,3.61-2.11-.1-3.74-1.89-3.64-3.99.1-2.1,1.9-3.72,4.01-3.61,2.11.1,3.74,1.89,3.64,3.99Z"/>
          <line class="cls-2" x1="66.22" y1="59.65" x2="77.15" y2="59.65"/>
          <path class="cls-4" d="M104.14,62.64c-.1,2.1-1.9,3.72-4.01,3.61-2.11-.1-3.74-1.89-3.64-3.99.1-2.1,1.9-3.72,4.01-3.61,2.11.1,3.74,1.89,3.64,3.99Z"/>
          <line class="cls-2" x1="100.13" y1="59.65" x2="111.06" y2="59.65"/>
        </g>
      </g>
    </g>
  </g>
</svg>