<?xml version="1.0" encoding="UTF-8"?>
<svg id="Layer_2" data-name="Layer 2" xmlns="http://www.w3.org/2000/svg" xmlns:xlink="http://www.w3.org/1999/xlink" viewBox="0 0 235.23 191.88">
  <defs>
    <style>
      .cls-1 {
        fill: none;
        stroke: #c1b49a;
        stroke-linecap: round;
        stroke-miterlimit: 10;
        stroke-width: 3px;
      }

      .cls-2 {
        clip-path: url(#clippath);
      }

      .cls-3, .cls-4 {
        fill: #f2ae72;
      }

      .cls-5 {
        fill: #995828;
      }

      .cls-5, .cls-6, .cls-4, .cls-7, .cls-8 {
        stroke-width: 0px;
      }

      .cls-6 {
        fill: #ff7f66;
      }

      .cls-7 {
        fill: #fff;
      }

      .cls-8 {
        fill: #ffdec0;
      }
    </style>
    <clipPath id="clippath">
      <path class="cls-4" d="M74.28,114.74c40.18,0,72.75-31.31,72.75-69.93,0-7.69-1.31-15.09-3.7-22.01-8.34-2.01-17.08-3.48-26.12-4.38-20.93-2.01-40.39-1.16-56.76,4.72.85-.75,1.68-1.52,2.49-2.32,1.29-1.28-.7-3.28-1.99-1.99-.51.51-1.05.98-1.58,1.47.2-.58.41-1.17.64-1.74.67-1.69-2.06-2.42-2.72-.75-.4,1.02-.75,2.05-1.07,3.08C47.99,7.84,34.72-6.09,28.78,2.82c-5.95,8.93-3.83,28.95-1.85,40.91-.68-.64-1.3-1.35-1.84-2.07-1.09-1.43-3.54-.02-2.43,1.42.74.96,1.53,1.88,2.4,2.69-1.17-.13-2.32-.12-3.54.55-1.59.88-.17,3.31,1.42,2.44,1.14-.63,2.58-.23,3.92.03-6.53,9.43-11.22,20.93-13.71,33.89,12.95,19.28,35.49,32.06,61.14,32.06Z"/>
    </clipPath>
  </defs>
  <g id="object">
    <g>
      <path class="cls-8" d="M223.3,104.17c-11.73,6.18-31.6,2.83-39.42-6.56-14.45-17.9-11.87-42.12,7.17-53.8-.53-.39-1.09-.76-1.63-1.14,1.43-.12,2.86-.23,4.29-.2,1.82.03,1.82-2.79,0-2.82-2.12-.04-4.22.21-6.33.37,1.3-.81,2.81-1.27,4.27-1.76,1.72-.57.98-3.29-.75-2.72-.99.33-1.97.66-2.91,1.05,5.43-14.97,8.88-37.9-2.73-36.53-9.87,1.17-22.49,13.77-30.51,22.99-.02-1.37-.19-2.74-.91-3.94-.93-1.56-3.37-.14-2.43,1.42.6,1,.6,2.25.55,3.45-.91-1.11-1.8-2.25-2.8-3.28-1.27-1.3-3.26.69-1.99,1.99.44.45.86.93,1.26,1.41-9.85-2.7-20.34-4.6-31.25-5.68-20.93-2.01-40.39-1.16-56.76,4.72.85-.75,1.68-1.52,2.49-2.32,1.29-1.28-.7-3.28-1.99-1.99-.51.51-1.05.98-1.58,1.47.2-.58.41-1.17.64-1.74.67-1.69-2.06-2.42-2.72-.75-.4,1.02-.75,2.05-1.07,3.08C47.95,7.84,34.68-6.09,28.74,2.82c-5.95,8.93-3.83,28.95-1.85,40.91-.68-.64-1.3-1.35-1.84-2.07-1.09-1.43-3.54-.02-2.43,1.42.74.96,1.53,1.88,2.4,2.69-1.17-.13-2.32-.12-3.54.55-1.59.88-.17,3.31,1.42,2.44,1.14-.63,2.58-.23,3.92.03-10.03,14.48-15.76,33.83-15.77,55.86.02,31.41,11.64,57.37,30.79,71.53,19.12,14.68,45.77,17.55,75.34,14.71,59.28-5.9,106.23-35.95,106.13-86.24,0-.16,0-.33,0-.49Z"/>
      <path class="cls-4" d="M191.06,43.81c-19.04,11.68-21.62,35.9-7.17,53.8,7.83,9.39,27.69,12.75,39.42,6.56-.11-25.54-12.38-45.84-32.25-60.36Z"/>
      <path class="cls-6" d="M154.72,86.69c3.06-1.17,6.82-1.17,10.11-1.41,1.65,0,5.17-.71,6.11.94.94,1.41-.76,5.24-1.46,6.65-2.82,4.47-7.7,6.75-11.93,2.28-3.29-3.29-6.44-7.47-2.82-8.46"/>
      <path class="cls-6" d="M161.23,94.94c3.09,10.97,1.12,29.33-9.07,36.32-1.49,1.02-.08,3.47,1.42,2.44,11.32-7.77,13.83-27.22,10.36-39.51-.49-1.75-3.21-1-2.72.75h0Z"/>
      <path class="cls-6" d="M160.01,134.09c-11.11,1.61-14.26-15.32-8.26-22.09,1.2-1.36-.79-3.36-1.99-1.99-8.03,9.05-2.97,28.82,11.01,26.8,1.79-.26,1.03-2.98-.75-2.72h0Z"/>
      <path class="cls-1" d="M1.5,118.5s11.79-1.85,20.05-1.95"/>
      <path class="cls-1" d="M1.83,123.99s12-2.38,19.22-2.24"/>
      <path class="cls-1" d="M213.61,117.16s11.93-.21,20.12.83"/>
      <path class="cls-1" d="M213.18,122.65s12.22-.7,19.35.44"/>
      <g>
        <path class="cls-3" d="M74.28,114.74c40.18,0,72.75-31.31,72.75-69.93,0-7.69-1.31-15.09-3.7-22.01-8.34-2.01-17.08-3.48-26.12-4.38-20.93-2.01-40.39-1.16-56.76,4.72.85-.75,1.68-1.52,2.49-2.32,1.29-1.28-.7-3.28-1.99-1.99-.51.51-1.05.98-1.58,1.47.2-.58.41-1.17.64-1.74.67-1.69-2.06-2.42-2.72-.75-.4,1.02-.75,2.05-1.07,3.08C47.99,7.84,34.72-6.09,28.78,2.82c-5.95,8.93-3.83,28.95-1.85,40.91-.68-.64-1.3-1.35-1.84-2.07-1.09-1.43-3.54-.02-2.43,1.42.74.96,1.53,1.88,2.4,2.69-1.17-.13-2.32-.12-3.54.55-1.59.88-.17,3.31,1.42,2.44,1.14-.63,2.58-.23,3.92.03-6.53,9.43-11.22,20.93-13.71,33.89,12.95,19.28,35.49,32.06,61.14,32.06Z"/>
        <g class="cls-2">
          <path class="cls-5" d="M68.66,10.98l-.13,21.28c0,1.22,0,2.5.63,3.54s2.11,1.67,3.1.97c1.57-8.8-.08-18.13-4.57-25.85"/>
          <path class="cls-5" d="M85.49,14.01c1.29,4.54-.29,9.37-.23,14.09s3.12,10.31,7.82,9.85c.71-4.87,1.43-9.85.45-14.67s-3.98-9.53-8.62-11.16"/>
          <path class="cls-5" d="M115.1,9.08c-2.01,9.48-.89,19.59,3.14,28.39,4.81-7.71,5.11-18.02.76-25.99-1.49-2.74-4.42-5.5-7.33-4.39"/>
        </g>
      </g>
      <path class="cls-7" d="M131.78,80.9c0,3.12-2.1,5.64-4.7,5.64s-4.7-2.52-4.7-5.64,2.1-5.64,4.7-5.64,4.7,2.53,4.7,5.64Z"/>
      <path class="cls-7" d="M196.3,80.9c0,3.12-2.1,5.64-4.7,5.64s-4.7-2.52-4.7-5.64,2.1-5.64,4.7-5.64,4.7,2.53,4.7,5.64Z"/>
      <path class="cls-7" d="M115.74,73.51c5.59,1.57,13.02-1.62,14.02-7.77.22-1.33-1.82-1.91-2.04-.56-.83,5.02-6.85,7.57-11.42,6.29-1.32-.37-1.87,1.67-.56,2.04h0Z"/>
      <path class="cls-7" d="M188.99,65.52c1.55,5.61,8.05,10.32,13.87,8.04,1.26-.49.71-2.54-.56-2.04-4.75,1.86-10-1.97-11.27-6.56-.36-1.31-2.4-.75-2.04.56h0Z"/>
    </g>
  </g>
</svg>