<?xml version="1.0" encoding="UTF-8"?>
<svg xmlns="http://www.w3.org/2000/svg" xmlns:xlink="http://www.w3.org/1999/xlink" viewBox="0 0 182.81 135.86">
  <defs>
    <style>
      .cls-1 {
        stroke: #616264;
        stroke-miterlimit: 10;
      }

      .cls-1, .cls-2 {
        fill: none;
        stroke-linecap: round;
        stroke-width: 3px;
      }

      .cls-3 {
        fill: #4f3426;
        mix-blend-mode: multiply;
      }

      .cls-3, .cls-4, .cls-5 {
        stroke-width: 0px;
      }

      .cls-2 {
        stroke: #30a02d;
        stroke-linejoin: round;
      }

      .cls-6 {
        clip-path: url(#clippath);
      }

      .cls-7, .cls-4 {
        fill: #f1f1f2;
      }

      .cls-8 {
        isolation: isolate;
      }

      .cls-5 {
        fill: #ffccc2;
      }
    </style>
    <clipPath id="clippath">
      <path class="cls-4" d="M151.58,1.74c-3.51,3.16-6.56,8.84-9.16,15.61-.2-1.44-.38-2.89-.47-4.36-.11-1.92-2.37-1.93-2.26,0,.1,1.74.32,3.45.55,5.16-.74-.86-1.39-1.87-2.05-2.87-.96-1.46-2.55.67-1.6,2.12.2.3.4.61.61.91-12.66-4.27-28.36-6.66-45.85-6.67-18.05,0-34.19,2.55-47.05,7.09.65-.99,1.31-1.95,2.02-2.85,1.07-1.32-.53-3.44-1.6-2.12-.93,1.15-1.76,2.43-2.59,3.71.04-1.23.2-2.45.36-3.68.25-1.89-1.93-2.7-2.18-.8-.15,1.16-.3,2.32-.38,3.47-2.53-6.39-5.46-11.72-8.83-14.74C18.12-9.95,8.74,40.31,9.35,60.74c-.13,4.2.2,8.55.89,13.02,5.55,34.69,33.81,62.16,81.11,62.1,47.29.06,75.56-27.41,81.1-62.1.69-4.47,1.02-8.83.89-13.03.61-20.44-8.77-70.68-21.77-58.99Z"/>
    </clipPath>
  </defs>
  <g class="cls-8">
    <g id="Layer_2" data-name="Layer 2">
      <g id="object">
        <g>
          <g>
            <path class="cls-7" d="M151.58,1.74c-3.51,3.16-6.56,8.84-9.16,15.61-.2-1.44-.38-2.89-.47-4.36-.11-1.92-2.37-1.93-2.26,0,.1,1.74.32,3.45.55,5.16-.74-.86-1.39-1.87-2.05-2.87-.96-1.46-2.55.67-1.6,2.12.2.3.4.61.61.91-12.66-4.27-28.36-6.66-45.85-6.67-18.05,0-34.19,2.55-47.05,7.09.65-.99,1.31-1.95,2.02-2.85,1.07-1.32-.53-3.44-1.6-2.12-.93,1.15-1.76,2.43-2.59,3.71.04-1.23.2-2.45.36-3.68.25-1.89-1.93-2.7-2.18-.8-.15,1.16-.3,2.32-.38,3.47-2.53-6.39-5.46-11.72-8.83-14.74C18.12-9.95,8.74,40.31,9.35,60.74c-.13,4.2.2,8.55.89,13.02,5.55,34.69,33.81,62.16,81.11,62.1,47.29.06,75.56-27.41,81.1-62.1.69-4.47,1.02-8.83.89-13.03.61-20.44-8.77-70.68-21.77-58.99Z"/>
            <g class="cls-6">
              <path class="cls-3" d="M31.77,79.79c-9.64,5.68-23.21,8.23-31.18.36-4.83-4.77-6.13-11.99-6.69-18.75-.67-8.16-.62-16.36-.56-24.55.13-19.46,1.17-41.16,15.13-54.71,7.86-7.63,18.63-11.35,29.09-14.61,31.19-9.71,45.98,8.69,41.61,38.67-4.2,28.82-21.36,58.24-47.41,73.59Z"/>
              <path class="cls-3" d="M116.59,58.31c6.68,8.06,14,15.91,23.3,20.71s21,6.07,30.1.92c4.63-2.62,8.28-6.68,11.3-11.05,10.06-14.56,13.63-33.43,9.58-50.66-4.05-17.23-15.64-32.54-31.13-41.1-8.34-4.61-17.6-7.28-26.93-9.22-18.2-3.79-47.02,1.38-47.36,24.61-.35,23.78,16.7,48.38,31.13,65.78Z"/>
            </g>
          </g>
          <path class="cls-2" d="M116.27,45.12l-13.17,8.42s7.34.42,13.17,0"/>
          <path class="cls-2" d="M60.91,45.12l13.17,8.42s-7.34.42-13.17,0"/>
          <path class="cls-5" d="M89.13,86.09c-.62,0-1.13-.67-1.13-1.5v-10.84c0-.83.51-1.5,1.13-1.5s1.13.67,1.13,1.5v10.84c0,.83-.51,1.5-1.13,1.5Z"/>
          <path class="cls-5" d="M83.31,66.24c2.53-.9,5.52-.47,8.16-.35,1.31.19,4.17-.16,4.78,1.68.63,1.6-1.05,5.46-1.73,6.87-2.62,4.4-6.7,6.27-9.69,1.06-2.34-3.85-4.49-8.63-1.53-9.27"/>
          <path class="cls-5" d="M76.36,98.23c-4.08,0-7.2-1.54-9.28-4.59-3.05-4.47-2.65-10.47-2.63-10.72.06-.83.61-1.43,1.23-1.35.62.08,1.07.81,1.01,1.64,0,.04-.31,4.97,2.07,8.43,1.63,2.38,4.19,3.59,7.59,3.59,4.5,0,7.83-1.94,9.88-5.78,1.53-2.85,1.76-5.66,1.76-5.69.06-.82.62-1.43,1.24-1.34.62.08,1.07.82,1.01,1.64-.01.14-1.23,14.16-13.89,14.16Z"/>
          <path class="cls-5" d="M101.89,98.23c-12.66,0-13.88-14.02-13.89-14.16-.06-.82.39-1.56,1.01-1.64.62-.09,1.17.51,1.24,1.34.04.49,1.07,11.47,11.64,11.47,3.41,0,5.97-1.21,7.61-3.61,2.38-3.49,2.06-8.36,2.05-8.41-.06-.82.39-1.56,1.01-1.64.62-.08,1.17.52,1.23,1.35.02.25.42,6.25-2.63,10.72-2.08,3.05-5.2,4.59-9.28,4.59Z"/>
          <path class="cls-1" d="M1.5,79.75s9.12-3.78,15.65-5.17"/>
          <path class="cls-1" d="M9.95,81.7s2.52-1.12,7.93-2.52"/>
          <path class="cls-1" d="M181.31,77.8s-9.12-3.78-15.65-5.17"/>
          <path class="cls-1" d="M172.86,79.75s-2.52-1.12-7.93-2.52"/>
        </g>
      </g>
    </g>
  </g>
</svg>