<?xml version="1.0" encoding="UTF-8"?>
<svg id="Layer_2" data-name="Layer 2" xmlns="http://www.w3.org/2000/svg" viewBox="0 0 1086.6 1082.49">
  <defs>
    <style>
      .cls-1, .cls-2 {
        stroke-width: 0px;
      }

      .cls-2 {
        fill: #fff;
      }
    </style>
  </defs>
  <g id="Layer_1-2" data-name="Layer 1">
    <g>
      <g>
        <path class="cls-2" d="M828.22,858.86c-30.77-14.2-56.36-38.66-81.12-62.31-23.33-22.29-47.45-45.34-75.51-59.37-47.47-23.74-103.97-152.44-134.45-229.99-13.28,69.94-37.23,186.33-63.44,267.89-31.52,98.07-159.16,172.54-219.99,203.22,40.84,23.53,82.23,37.86,120.09,44.17,80.97,13.49,165.8,26.67,234.72,26.67h.01c44.52,0,78.98-5.6,102.44-16.64,13.08-6.16,28.53-12.76,44.88-19.74,62.57-26.72,143.62-61.36,203.35-116.21-41.1-3.48-92.19-19.78-131-37.69ZM660.92,888.94c-1.02,9.16-9.24,15.75-18.41,14.73-26.1-2.9-49.19-21.5-64.88-37.95-17.9,39.76-51.16,53.52-52.88,54.21-2.03.81-4.12,1.2-6.19,1.2-6.62,0-12.88-3.97-15.49-10.49-3.4-8.51.7-18.17,9.18-21.63,1.57-.66,29.72-13.19,39.67-50.56-14.32-10.35-36.94-31.31-32.46-58.2,1.95-11.68,10.05-31.28,42.47-31.28,14.99,0,32.85,3.98,51.77,8.2l3.9.87c24.97,5.55,32.08,23.49,30.58,37.17-2.05,18.64-20.02,38.22-46.62,47.17,12.37,13,28.89,26.4,44.62,28.15,9.15,1.02,15.75,9.26,14.73,18.41Z"/>
        <path class="cls-2" d="M261.63,629.26c8.29-39.17,28.54-52.2,39.14-56.42-.16-.07-.32-.15-.48-.22-.09-.04-.17-.07-.26-.11-.03-.01-.05-.02-.08-.03-19.57-8.37-36.25-13.97-50.37-17.69-19.94-5.26-34.73-6.74-44.94-6.74-12.46,0-19.16,2.15-20.92,2.81-6.85,2.57-11.33,9.2-11.15,16.52.04,1.61,1.28,39.8,28.15,77.77,20.28,28.66,47.6,46.9,76.75,58.27-9.03-10.58-24.11-35.03-15.83-74.16Z"/>
        <path class="cls-2" d="M379.66,720.68c7.16,0,14.59-.19,22.09-.58,4.55-.24,8.76-2.28,11.78-5.59.64-.7,1.25-1.44,1.78-2.26,2.58-3.99,3.36-8.84,2.24-13.4-.18-.74-.4-1.47-.68-2.19-1.15-2.93-23.66-59.1-74.59-98.96,2.86,15.48,6.14,44.56-2.49,71.17-7.72,23.8-18.62,39.22-31.21,44.15,24.65,5.76,49.31,7.67,71.05,7.67h.02Z"/>
        <path class="cls-2" d="M859.04,663.38c.25-.16.5-.29.75-.45,77.49-49.46,87.68-111.21,88.08-113.82.73-4.81-.52-9.71-3.46-13.59-2.94-3.88-7.33-6.39-12.15-6.99-1.74-.22-43.22-5.1-92.82,7.83-9.98,2.6-19.53,5.8-28.73,9.46-1.72.43-3.39,1.07-4.94,2-.68.29-1.32.62-1.99.91,47.17,19.12,54.4,85.94,55.26,114.65Z"/>
        <path class="cls-2" d="M701.47,677.75c1.04.78,2.16,1.49,3.4,2.04.93.42,9.48,4.19,23.38,7.27t0,0c16.92,3.74,44.71,6.9,76.88-.77-11.83-6.83-25.99-18.47-36.93-38.23-15.04-27.17-16.5-53.11-15.73-67.76-23.99,20.06-43.12,45.46-56.63,75.75-.54,1.21-.91,2.44-1.17,3.68-1.42,6.81,1.25,13.85,6.8,18.02Z"/>
      </g>
      <g>
        <path class="cls-1" d="M1086.09,651.47c-4.94-96.91-43.35-196.67-114.16-296.53-29.9-106.53-63.72-212.46-77.53-253.9-3-9.01-5.89-19.98-8.69-30.59-9.96-37.8-18.56-70.45-43.58-70.45-6.09,0-11.92,2.2-17.34,6.54-5.69,4.55-17.52,14.01-50.5,118.62-10.78,34.19-20.37,67.67-25.34,85.34-38.1-1.83-90.37-5.03-100.57-7.58-16.11-4.03-102.93-14.39-153.01-14.39-8.93,0-16.14.32-22.05.97-31.79,3.53-100.65,29.97-131.88,42.46-8.28-20.94-24.1-59.55-42.97-98.64C246,24.61,217.38,10.67,198.31,10.67c-3.7,0-7.33.64-10.78,1.89-11.65,4.24-38.92,14.15-65.5,169.01-10.63,61.94-17.03,123.01-18.71,139.87-9.52,13.49-41.15,60.58-67.1,125.71-40.51,101.65-47.18,198.64-19.27,280.49,40.58,119.05,108.42,201.72,181.92,254.79.2.77,17.29,12.31,17.91,12.24,51,33.19,103.84,52.73,151.56,60.68,82.35,13.72,168.73,27.13,240.2,27.13h.02c50.15,0,88.31-6.48,116.64-19.81,12.54-5.9,27.71-12.38,43.78-19.24,81.89-34.97,194.03-82.86,257.69-172.73,42.48-59.97,63.58-137.83,59.44-219.24ZM200.71,645.15c-26.87-37.97-28.11-76.17-28.15-77.77-.18-7.32,4.3-13.95,11.15-16.52,1.76-.66,8.46-2.81,20.92-2.81,10.21,0,25,1.49,44.94,6.74,14.12,3.72,30.81,9.32,50.37,17.69.03.01.05.02.08.03.09.04.17.07.26.11.16.07.32.15.48.22-10.6,4.22-30.86,17.25-39.14,56.42-8.28,39.13,6.8,63.59,15.83,74.16-29.15-11.37-56.47-29.61-76.75-58.27ZM416.87,696.66c.28.72.5,1.45.68,2.19,1.11,4.56.33,9.41-2.24,13.4-.53.81-1.13,1.55-1.78,2.26-3.02,3.31-7.23,5.36-11.78,5.59-7.5.39-14.93.58-22.09.58h-.02c-21.74,0-46.4-1.9-71.05-7.67,12.6-4.92,23.5-20.35,31.21-44.15,8.63-26.61,5.35-55.7,2.49-71.17,50.93,39.86,73.44,96.04,74.59,98.96ZM768.21,648.05c10.94,19.76,25.1,31.4,36.93,38.23-32.17,7.67-59.97,4.51-76.88.77t0,0c-13.9-3.07-22.45-6.85-23.38-7.27-1.24-.56-2.36-1.26-3.4-2.04-5.55-4.18-8.22-11.22-6.8-18.02.26-1.24.63-2.48,1.17-3.68,13.51-30.29,32.64-55.69,56.63-75.75-.76,14.64.69,40.59,15.73,67.76ZM947.87,549.12c-.4,2.61-10.58,64.36-88.08,113.82-.25.16-.5.29-.75.45-.87-28.71-8.09-95.53-55.26-114.65.67-.29,1.31-.62,1.99-.91,1.55-.93,3.21-1.57,4.94-2,9.2-3.66,18.75-6.86,28.73-9.46,49.6-12.93,91.08-8.05,92.82-7.83,4.83.6,9.21,3.12,12.15,6.99,2.94,3.88,4.19,8.78,3.46,13.59ZM755.87,1012.76c-16.35,6.98-31.8,13.58-44.88,19.74-23.46,11.04-57.93,16.64-102.44,16.64h-.01c-68.93,0-153.75-13.18-234.72-26.67-37.86-6.31-79.26-20.63-120.09-44.17,60.83-30.68,188.46-105.15,219.99-203.22,26.21-81.56,50.16-197.95,63.44-267.89,30.48,77.56,86.97,206.26,134.45,229.99,28.06,14.03,52.19,37.08,75.51,59.37,24.75,23.65,50.35,48.11,81.12,62.31,38.81,17.91,89.9,34.21,131,37.69-59.73,54.84-140.78,89.49-203.35,116.21Z"/>
        <path class="cls-1" d="M646.18,870.52c-15.73-1.75-32.25-15.15-44.62-28.15,26.59-8.95,44.57-28.53,46.62-47.17,1.5-13.68-5.61-31.62-30.58-37.17l-3.9-.87c-18.91-4.22-36.78-8.2-51.77-8.2-32.42,0-40.53,19.6-42.47,31.28-4.48,26.88,18.15,47.85,32.46,58.2-9.96,37.37-38.1,49.9-39.67,50.56-8.48,3.46-12.58,13.12-9.18,21.63,2.61,6.52,8.87,10.49,15.49,10.49,2.06,0,4.16-.38,6.19-1.2,1.73-.69,34.98-14.45,52.88-54.21,15.69,16.45,38.78,35.05,64.88,37.95,9.18,1.02,17.4-5.58,18.41-14.73,1.02-9.15-5.58-17.4-14.73-18.41Z"/>
      </g>
    </g>
  </g>
</svg>